<svg xmlns="http://www.w3.org/2000/svg" viewBox="0 0 1077.005 252.631" role="img" aria-labelledby="title desc">
  <title id="title">CRIMSON wordmark</title>
  <desc id="desc">Transparent outlined CRIMSON team wordmark using the event stencil lettering and team color.</desc>
  <defs>
    <filter id="teamShadow" x="-25%" y="-60%" width="150%" height="220%" color-interpolation-filters="sRGB">
      <feDropShadow dx="0" dy="0" stdDeviation="14" flood-color="#000000" flood-opacity="0.85"/>
      <feDropShadow dx="0" dy="2" stdDeviation="3" flood-color="#000000" flood-opacity="0.95"/>
      <feDropShadow dx="0" dy="0" stdDeviation="0.5" flood-color="#000000" flood-opacity="0.80"/>
    </filter>
  </defs>
  <path d="M103.904296875 184.630859375 80.525390625 161.33984375V91.291015625L103.904296875 68.0H119.373046875V184.630859375ZM151.365234375 114.7578125V91.291015625H125.525390625V68.0H166.921875L190.212890625 91.291015625V114.7578125ZM125.525390625 184.630859375V161.33984375H151.365234375V144.2890625H190.212890625V161.33984375L166.921875 184.630859375Z M261.045703125 149.650390625V127.0625H290.225390625V91.291015625H261.045703125V68.0H305.43046875L328.809375 91.291015625V126.271484375L310.70390625 144.376953125L332.764453125 184.630859375H291.280078125L274.756640625 149.650390625ZM216.045703125 184.630859375V68.0H254.893359375V184.630859375Z M352.093359375 184.630859375V159.7578125H363.7828125V92.78515625H352.093359375V68.0H414.319921875V92.78515625H402.63046875V159.7578125H414.319921875V184.630859375Z M509.58632812499997 184.630859375 440.41640624999997 68.0H481.72499999999997L513.0140624999999 119.85546875L537.6234374999999 77.66796875V136.37890625ZM543.3363281249999 184.630859375V68.0H582.1839843749999V184.630859375ZM440.32851562499997 184.630859375V78.810546875L476.62734374999997 139.71875V184.630859375Z M682.020703125 184.630859375V140.94921875H631.571484375L608.192578125 117.5703125V91.291015625L631.571484375 68.0H644.755078125V109.396484375H698.368359375L720.95625 132.775390625V161.33984375L697.665234375 184.630859375ZM682.020703125 100.6953125V89.005859375H650.907421875V68.0H697.57734375L717.7921875 88.302734375V100.6953125ZM627.7921875 184.630859375 608.192578125 161.33984375V149.650390625H647.040234375V163.537109375H675.868359375V184.630859375Z M803.91796875 184.630859375V160.900390625H818.771484375V91.642578125H803.91796875V68.0H834.064453125L857.619140625 91.291015625V161.33984375L834.064453125 184.630859375ZM767.8828125 184.630859375 744.240234375 161.33984375V91.291015625L767.8828125 68.0H797.765625V91.642578125H783.17578125V160.900390625H797.765625V184.630859375Z M953.412890625 184.630859375 882.748828125 68.0H923.79375L994.721484375 184.630859375ZM994.721484375 173.556640625 960.88359375 117.833984375V68.0H994.721484375ZM882.748828125 184.630859375V79.07421875L916.58671875 134.533203125V184.630859375Z" fill="#ff2d78" stroke="#000000" stroke-opacity="0.55" stroke-width="0.4" paint-order="stroke fill" filter="url(#teamShadow)"/>
</svg>
