<svg xmlns="http://www.w3.org/2000/svg" viewBox="0 0 939.375 252.631" role="img" aria-labelledby="title desc">
  <title id="title">GOLDEN wordmark</title>
  <desc id="desc">Transparent outlined GOLDEN team wordmark using the event stencil lettering and team color.</desc>
  <defs>
    <filter id="teamShadow" x="-25%" y="-60%" width="150%" height="220%" color-interpolation-filters="sRGB">
      <feDropShadow dx="0" dy="0" stdDeviation="14" flood-color="#000000" flood-opacity="0.85"/>
      <feDropShadow dx="0" dy="2" stdDeviation="3" flood-color="#000000" flood-opacity="0.95"/>
      <feDropShadow dx="0" dy="0" stdDeviation="0.5" flood-color="#000000" flood-opacity="0.80"/>
    </filter>
  </defs>
  <path d="M105.3984375 184.630859375 82.107421875 161.33984375V91.291015625L105.3984375 68.0H120.955078125V161.33984375H154.265625V184.630859375ZM156.0234375 102.98046875V91.291015625H127.107421875V68.0H174.48046875L194.87109375 91.291015625V102.98046875ZM160.41796875 184.630859375V143.05859375H141.521484375V119.943359375H194.87109375V184.630859375Z M277.8328125 184.630859375V160.900390625H292.686328125V91.642578125H277.8328125V68.0H307.979296875L331.533984375 91.291015625V161.33984375L307.979296875 184.630859375ZM241.79765625 184.630859375 218.155078125 161.33984375V91.291015625L241.79765625 68.0H271.68046875V91.642578125H257.090625V160.900390625H271.68046875V184.630859375Z M356.663671875 184.630859375V68.0H395.511328125V184.630859375ZM401.663671875 184.630859375V161.33984375H420.91171875V146.57421875H456.155859375V184.630859375Z M520.7484374999999 184.630859375V161.33984375H549.5765624999999V91.291015625H520.7484374999999V68.0H565.1332031249999L588.5121093749999 91.291015625V161.33984375L565.1332031249999 184.630859375ZM475.74843749999997 184.630859375V68.0H514.5960937499999V184.630859375Z M613.55390625 184.630859375V68.0H652.4015625V114.23046875H689.579296875V136.73046875H652.4015625V184.630859375ZM682.723828125 101.75V90.587890625H658.55390625V68.0H719.286328125V101.75ZM658.55390625 184.630859375V161.33984375H680.438671875V149.650390625H719.286328125V184.630859375Z M815.783203125 184.630859375 745.119140625 68.0H786.1640625L857.091796875 184.630859375ZM857.091796875 173.556640625 823.25390625 117.833984375V68.0H857.091796875ZM745.119140625 184.630859375V79.07421875L778.95703125 134.533203125V184.630859375Z" fill="#ffd700" stroke="#000000" stroke-opacity="0.55" stroke-width="0.4" paint-order="stroke fill" filter="url(#teamShadow)"/>
</svg>
