<svg xmlns="http://www.w3.org/2000/svg" viewBox="0 0 679.057 252.631" role="img" aria-labelledby="title desc">
  <title id="title">NOVA wordmark</title>
  <desc id="desc">Transparent outlined NOVA team wordmark using the event stencil lettering and team color.</desc>
  <defs>
    <filter id="teamShadow" x="-25%" y="-60%" width="150%" height="220%" color-interpolation-filters="sRGB">
      <feDropShadow dx="0" dy="0" stdDeviation="14" flood-color="#000000" flood-opacity="0.85"/>
      <feDropShadow dx="0" dy="2" stdDeviation="3" flood-color="#000000" flood-opacity="0.95"/>
      <feDropShadow dx="0" dy="0" stdDeviation="0.5" flood-color="#000000" flood-opacity="0.80"/>
    </filter>
  </defs>
  <path d="M152.947265625 184.630859375 82.283203125 68.0H123.328125L194.255859375 184.630859375ZM194.255859375 173.556640625 160.41796875 117.833984375V68.0H194.255859375ZM82.283203125 184.630859375V79.07421875L116.12109375 134.533203125V184.630859375Z M278.975390625 184.630859375V160.900390625H293.82890625V91.642578125H278.975390625V68.0H309.121875L332.6765625 91.291015625V161.33984375L309.121875 184.630859375ZM242.940234375 184.630859375 219.29765625 161.33984375V91.291015625L242.940234375 68.0H272.823046875V91.642578125H258.233203125V160.900390625H272.823046875V184.630859375Z M387.425390625 184.630859375 345.237890625 68.0H384.8765625L425.218359375 184.630859375ZM429.964453125 181.115234375 412.47421875 129.787109375 431.2828125 68.0H470.30625Z M566.9789062499999 184.630859375 562.0570312499999 171.88671875H523.9124999999999L531.9984374999999 148.771484375H553.0921874999999L521.8910156249999 68.0H559.7718749999999L606.2660156249999 184.630859375ZM476.01210937499997 184.630859375 517.6722656249999 73.2734375 534.8988281249999 119.591796875 513.5414062499999 184.630859375Z" fill="#7c3aff" stroke="#000000" stroke-opacity="0.55" stroke-width="0.4" paint-order="stroke fill" filter="url(#teamShadow)"/>
</svg>
